# xmcd
#
# Track frame offsets: 
#        150
#        15487
#        34837
#        56511
#        72023
#        88076
#        101926
#        119071
#        138017
#        166735
#        182700
#        211058
#
# Disc length: 3034 seconds
#
# Revision: 0
# Processed by: cddbd v1.5.2PL0 Copyright (c) Steve Scherf et al.
# Submitted via: ExactAudioCopy v1.3
#
DISCID=9e0bd80c
DTITLE=Jack Lukeman - Open your Borders
DYEAR=2015
DGENRE=
TTITLE0=Open your Border
TTITLE1=Georgie Boy
TTITLE2=Rooftop Lullaby
TTITLE3=Little Man
TTITLE4=Great Wall of China
TTITLE5=Wicked Way
TTITLE6=Happiness
TTITLE7=Lazarus
TTITLE8=When the Moon is high
TTITLE9=Stardust
TTITLE10=Keep Dancing
TTITLE11=Old Man River
EXTD=
EXTT0=
EXTT1=
EXTT2=
EXTT3=
EXTT4=
EXTT5=
EXTT6=
EXTT7=
EXTT8=
EXTT9=
EXTT10=
EXTT11=
PLAYORDER=
